<svg xmlns="http://www.w3.org/2000/svg" width="1200" height="300" viewBox="0 0 1200 300" fill="none" role="img" aria-label="Primitive Labs - Ciberseguridad ofensiva">
  <defs>
    <linearGradient id="bg" x1="0" y1="0" x2="1" y2="1">
      <stop offset="0" stop-color="#04060a"/><stop offset="0.5" stop-color="#010103"/><stop offset="1" stop-color="#06090c"/>
    </linearGradient>
    <radialGradient id="bloom" cx="0.16" cy="0.25" r="0.55">
      <stop offset="0" stop-color="#B5C6C4" stop-opacity="0.12"/><stop offset="1" stop-color="#B5C6C4" stop-opacity="0"/>
    </radialGradient>
    <clipPath id="r"><rect width="1200" height="300" rx="18"/></clipPath>
  </defs>
  <g clip-path="url(#r)">
    <rect width="1200" height="300" fill="url(#bg)"/>
    <rect width="1200" height="300" fill="url(#bloom)"/>
    <!-- grid -->
    <g stroke="#B5C6C4" stroke-opacity="0.05" stroke-width="1">
      <line x1="0" y1="75" x2="1200" y2="75"/><line x1="0" y1="150" x2="1200" y2="150"/><line x1="0" y1="225" x2="1200" y2="225"/>
      <line x1="400" y1="0" x2="400" y2="300"/><line x1="800" y1="0" x2="800" y2="300"/>
    </g>
    <!-- radar right -->
    <g transform="translate(1010,150)">
      <circle r="115" fill="none" stroke="#B5C6C4" stroke-opacity="0.10"/>
      <circle r="86" fill="none" stroke="#B5C6C4" stroke-opacity="0.10"/>
      <circle r="57" fill="none" stroke="#B5C6C4" stroke-opacity="0.12"/>
      <circle r="28" fill="none" stroke="#B5C6C4" stroke-opacity="0.14"/>
      <line x1="-115" y1="0" x2="115" y2="0" stroke="#B5C6C4" stroke-opacity="0.08"/>
      <line x1="0" y1="-115" x2="0" y2="115" stroke="#B5C6C4" stroke-opacity="0.08"/>
      <g>
        <path d="M0 0 L115 0 A115 115 0 0 1 81 81 Z" fill="#B5C6C4" fill-opacity="0.16"/>
        <line x1="0" y1="0" x2="115" y2="0" stroke="#B5C6C4" stroke-width="2"/>
        <animateTransform attributeName="transform" type="rotate" from="0" to="360" dur="4s" repeatCount="indefinite"/>
      </g>
      <circle cx="52" cy="-38" r="4" fill="#B5C6C4"><animate attributeName="opacity" values="0;1;1;0.4" dur="4s" repeatCount="indefinite"/></circle>
      <circle cx="-66" cy="28" r="4" fill="#e06a6a"><animate attributeName="opacity" values="0;0;1;0.5" dur="4s" repeatCount="indefinite"/></circle>
      <circle cx="18" cy="76" r="4" fill="#B5C6C4"><animate attributeName="opacity" values="0;0;0;1" dur="4s" repeatCount="indefinite"/></circle>
      <circle r="4" fill="#B5C6C4"/>
    </g>
    <!-- WORDMARK (real Unbounded font, as vector paths) -->
    <g transform="translate(60,118)">
      <g fill="#eef4f1"><path transform="translate(0.00,0) scale(0.06200,-0.06200)" d="M494 750Q592 750 662.5 717.0Q733 684 770.0 624.5Q807 565 807 484Q807 404 770.0 344.0Q733 284 662.5 251.0Q592 218 494 218H173V402H479Q523 402 547.5 424.0Q572 446 572 484Q572 524 547.5 545.0Q523 566 479 566H193L298 672V0H65V750Z"/>
<path transform="translate(51.15,0) scale(0.06200,-0.06200)" d="M226 426H488Q532 426 556.5 446.0Q581 466 581 504Q581 542 556.5 562.0Q532 582 488 582H193L298 690V0H65V750H523Q610 750 676.0 719.0Q742 688 779.0 633.0Q816 578 816 504Q816 432 779.0 376.5Q742 321 676.0 290.5Q610 260 523 260H226ZM326 351H585L843 0H576Z"/>
<path transform="translate(104.66,0) scale(0.06200,-0.06200)" d="M65 750H298V0H65Z"/>
<path transform="translate(127.10,0) scale(0.06200,-0.06200)" d="M1191 750V0H969V664L1015 659L744 0H512L240 657L286 663V0H65V750H424L671 123H586L831 750Z"/>
<path transform="translate(204.91,0) scale(0.06200,-0.06200)" d="M65 750H298V0H65Z"/>
<path transform="translate(227.35,0) scale(0.06200,-0.06200)" d="M298 649H531V0H298ZM20 750H809V543H20Z"/>
<path transform="translate(278.75,0) scale(0.06200,-0.06200)" d="M65 750H298V0H65Z"/>
<path transform="translate(301.20,0) scale(0.06200,-0.06200)" d="M527 106H430L708 750H952L608 0H343L-1 750H248Z"/>
<path transform="translate(360.16,0) scale(0.06200,-0.06200)" d="M720 457V293H163V457ZM322 375 275 85 184 186H755V0H44L100 375L44 750H750V564H184L275 665Z"/></g>
      <g fill="#B5C6C4" transform="translate(424.9,0)"><path transform="translate(0.00,0) scale(0.06200,-0.06200)" d="M298 750V103L193 207H752V0H65V750Z"/>
<path transform="translate(47.86,0) scale(0.06200,-0.06200)" d="M227 135V321H741V135ZM642 750 978 0H729L457 649H520L247 0H-1L334 750Z"/>
<path transform="translate(108.44,0) scale(0.06200,-0.06200)" d="M591 366 610 408Q695 406 752.0 381.5Q809 357 837.0 314.0Q865 271 865 213Q865 152 837.5 103.5Q810 55 754.0 27.5Q698 0 615 0H44L101 385L44 750H594Q698 750 756.5 701.5Q815 653 815 567Q815 519 793.5 476.0Q772 433 722.5 403.5Q673 374 591 366ZM272 52 183 158H546Q585 158 607.0 177.5Q629 197 629 232Q629 265 606.0 286.5Q583 308 539 308H237V462H506Q537 462 558.0 481.0Q579 500 579 531Q579 557 560.5 574.5Q542 592 508 592H184L272 698L323 385Z"/>
<path transform="translate(163.93,0) scale(0.06200,-0.06200)" d="M36 246H272Q276 220 297.5 200.5Q319 181 356.0 170.5Q393 160 443 160Q512 160 550.5 176.0Q589 192 589 225Q589 248 567.0 262.5Q545 277 480 282L348 293Q186 305 113.5 363.5Q41 422 41 521Q41 602 88.0 656.5Q135 711 219.0 739.0Q303 767 417 767Q527 767 612.5 736.0Q698 705 748.5 648.5Q799 592 804 517H568Q564 539 545.5 555.5Q527 572 493.0 581.0Q459 590 412 590Q350 590 313.5 575.0Q277 560 277 530Q277 508 298.5 494.0Q320 480 378 475L523 463Q631 455 697.5 429.5Q764 404 794.0 360.5Q824 317 824 251Q824 171 776.0 110.5Q728 50 641.5 16.5Q555 -17 439 -17Q320 -17 230.0 16.0Q140 49 89.0 108.5Q38 168 36 246Z"/></g>
    </g>
    <!-- tagline command (JetBrains Mono paths) -->
    <g transform="translate(62,158)" fill="#B5C6C4"><path transform="translate(0.00,0) scale(0.02200,-0.02200)" d="M270 -140V-9Q173 -1 117.5 53.5Q62 108 61 194H177Q177 155 201.5 128.5Q226 102 270 95V319L250 324Q167 347 122.0 403.5Q77 460 77 538Q77 622 129.0 676.0Q181 730 270 738V870H332V739Q422 731 475.0 678.0Q528 625 529 541H412Q412 579 391.5 603.5Q371 628 332 635V422L367 412Q450 390 494.5 334.0Q539 278 539 197Q539 111 483.0 55.5Q427 0 332 -9V-140ZM332 94Q375 101 399.0 126.5Q423 152 423 193Q423 236 394.0 266.0Q365 296 313 302L332 331ZM270 388V635Q233 628 213.0 605.0Q193 582 193 546Q193 499 224.0 468.0Q255 437 311 433Z"/>
<path transform="translate(26.40,0) scale(0.02200,-0.02200)" d="M300 -10Q258 -10 233.5 14.5Q209 39 209 80Q209 122 233.5 147.0Q258 172 300 172Q342 172 366.5 147.0Q391 122 391 80Q391 39 366.5 14.5Q342 -10 300 -10Z"/>
<path transform="translate(39.60,0) scale(0.02200,-0.02200)" d="M64 -110 415 830H536L185 -110Z"/>
<path transform="translate(52.80,0) scale(0.02200,-0.02200)" d="M280 -9Q219 -9 173.5 10.5Q128 30 101.5 64.5Q75 99 72 146H189Q192 119 216.5 103.0Q241 87 280 87H323Q371 87 395.0 106.0Q419 125 419 157Q419 187 397.5 204.5Q376 222 333 228L263 238Q172 252 129.5 288.5Q87 325 87 398Q87 475 137.5 517.0Q188 559 287 559H325Q414 559 467.0 519.0Q520 479 526 411H409Q406 434 384.0 448.5Q362 463 325 463H287Q242 463 221.5 446.5Q201 430 201 398Q201 369 219.0 354.5Q237 340 276 334L348 324Q443 310 488.0 271.5Q533 233 533 159Q533 79 480.5 35.0Q428 -9 323 -9Z"/>
<path transform="translate(66.00,0) scale(0.02200,-0.02200)" d="M304 -10Q234 -10 182.5 16.0Q131 42 102.5 90.5Q74 139 74 204V346Q74 412 102.5 460.0Q131 508 182.5 534.0Q234 560 304 560Q405 560 466.0 507.0Q527 454 530 363H414Q411 408 382.0 433.0Q353 458 304 458Q251 458 220.5 429.0Q190 400 190 346V204Q190 151 220.5 121.5Q251 92 304 92Q353 92 382.0 117.0Q411 142 414 187H530Q527 96 466.0 43.0Q405 -10 304 -10Z"/>
<path transform="translate(79.20,0) scale(0.02200,-0.02200)" d="M242 -10Q157 -10 107.5 34.5Q58 79 58 156Q58 236 111.5 280.0Q165 324 260 324H405V373Q405 415 378.0 439.0Q351 463 303 463Q260 463 231.5 444.5Q203 426 198 394H84Q93 470 153.5 515.0Q214 560 306 560Q406 560 464.0 510.0Q522 460 522 374V0H408V98H389L409 122Q409 61 363.0 25.5Q317 -10 242 -10ZM279 78Q334 78 369.5 106.5Q405 135 405 179V249H262Q222 249 198.0 226.5Q174 204 174 166Q174 125 202.0 101.5Q230 78 279 78Z"/>
<path transform="translate(92.40,0) scale(0.02200,-0.02200)" d="M80 0V550H195V445H225L195 418Q195 485 234.5 522.5Q274 560 342 560Q424 560 473.0 507.0Q522 454 522 363V0H405V351Q405 403 377.5 431.0Q350 459 302 459Q253 459 225.0 429.5Q197 400 197 346V0Z"/>
<path transform="translate(118.80,0) scale(0.02200,-0.02200)" d="M140 277V383H460V277Z"/>
<path transform="translate(132.00,0) scale(0.02200,-0.02200)" d="M140 277V383H460V277Z"/>
<path transform="translate(145.20,0) scale(0.02200,-0.02200)" d="M360 0Q283 0 240.0 42.5Q197 85 197 160V445H46V550H197V705H313V550H527V445H313V160Q313 105 367 105H517V0Z"/>
<path transform="translate(158.40,0) scale(0.02200,-0.02200)" d="M242 -10Q157 -10 107.5 34.5Q58 79 58 156Q58 236 111.5 280.0Q165 324 260 324H405V373Q405 415 378.0 439.0Q351 463 303 463Q260 463 231.5 444.5Q203 426 198 394H84Q93 470 153.5 515.0Q214 560 306 560Q406 560 464.0 510.0Q522 460 522 374V0H408V98H389L409 122Q409 61 363.0 25.5Q317 -10 242 -10ZM279 78Q334 78 369.5 106.5Q405 135 405 179V249H262Q222 249 198.0 226.5Q174 204 174 166Q174 125 202.0 101.5Q230 78 279 78Z"/>
<path transform="translate(171.60,0) scale(0.02200,-0.02200)" d="M98 0V550H209V445H238L203 380Q203 469 242.5 514.5Q282 560 359 560Q448 560 499.0 505.5Q550 451 550 354V316H429V346Q429 402 400.5 432.0Q372 462 322 462Q271 462 243.0 431.5Q215 401 215 346V0Z"/>
<path transform="translate(184.80,0) scale(0.02200,-0.02200)" d="M154 -180V-81H320Q362 -81 383.0 -61.0Q404 -41 404 -3V46L406 148H380L405 172Q405 107 365.5 70.0Q326 33 259 33Q174 33 125.0 89.5Q76 146 76 242V351Q76 447 125.0 503.5Q174 560 259 560Q326 560 365.5 523.0Q405 486 405 421L380 445H405L403 550H519V-5Q519 -86 466.5 -133.0Q414 -180 322 -180ZM298 134Q347 134 375.0 164.0Q403 194 403 247V346Q403 399 375.0 429.0Q347 459 298 459Q247 459 219.5 429.5Q192 400 192 346V247Q192 193 219.5 163.5Q247 134 298 134Z"/>
<path transform="translate(198.00,0) scale(0.02200,-0.02200)" d="M300 -10Q232 -10 181.0 16.5Q130 43 102.0 91.5Q74 140 74 204V346Q74 410 102.0 458.5Q130 507 181.0 533.5Q232 560 300 560Q369 560 419.5 533.5Q470 507 498.0 458.5Q526 410 526 346V247H186V204Q186 145 215.5 114.0Q245 83 301 83Q346 83 373.5 99.0Q401 115 408 144H523Q510 74 449.0 32.0Q388 -10 300 -10ZM414 315V346Q414 405 385.5 436.5Q357 468 300 468Q245 468 215.5 436.0Q186 404 186 346V323L422 324Z"/>
<path transform="translate(211.20,0) scale(0.02200,-0.02200)" d="M360 0Q283 0 240.0 42.5Q197 85 197 160V445H46V550H197V705H313V550H527V445H313V160Q313 105 367 105H517V0Z"/>
<path transform="translate(237.60,0) scale(0.02200,-0.02200)" d="M360 0Q283 0 240.0 42.5Q197 85 197 160V445H46V550H197V705H313V550H527V445H313V160Q313 105 367 105H517V0Z"/>
<path transform="translate(250.80,0) scale(0.02200,-0.02200)" d="M299 -10Q197 -10 137.5 48.0Q78 106 78 206V550H195V207Q195 152 222.5 122.0Q250 92 299 92Q349 92 377.0 122.0Q405 152 405 207V550H522V206Q522 106 461.5 48.0Q401 -10 299 -10Z"/>
<path transform="translate(264.00,0) scale(0.02200,-0.02200)" d="M140 277V383H460V277Z"/>
<path transform="translate(277.20,0) scale(0.02200,-0.02200)" d="M78 0V106H271V445H103V550H383V106H557V0ZM317 644Q280 644 259.0 662.5Q238 681 238 713Q238 746 259.0 765.0Q280 784 317 784Q354 784 375.0 765.0Q396 746 396 713Q396 681 375.0 662.5Q354 644 317 644Z"/>
<path transform="translate(290.40,0) scale(0.02200,-0.02200)" d="M80 0V550H195V445H225L195 418Q195 485 234.5 522.5Q274 560 342 560Q424 560 473.0 507.0Q522 454 522 363V0H405V351Q405 403 377.5 431.0Q350 459 302 459Q253 459 225.0 429.5Q197 400 197 346V0Z"/>
<path transform="translate(303.60,0) scale(0.02200,-0.02200)" d="M209 0V385H55V491H209V577Q209 647 255.0 688.5Q301 730 379 730H540V627H381Q355 627 340.0 613.5Q325 600 325 575V491H540V385H325V0Z"/>
<path transform="translate(316.80,0) scale(0.02200,-0.02200)" d="M98 0V550H209V445H238L203 380Q203 469 242.5 514.5Q282 560 359 560Q448 560 499.0 505.5Q550 451 550 354V316H429V346Q429 402 400.5 432.0Q372 462 322 462Q271 462 243.0 431.5Q215 401 215 346V0Z"/>
<path transform="translate(330.00,0) scale(0.02200,-0.02200)" d="M242 -10Q157 -10 107.5 34.5Q58 79 58 156Q58 236 111.5 280.0Q165 324 260 324H405V373Q405 415 378.0 439.0Q351 463 303 463Q260 463 231.5 444.5Q203 426 198 394H84Q93 470 153.5 515.0Q214 560 306 560Q406 560 464.0 510.0Q522 460 522 374V0H408V98H389L409 122Q409 61 363.0 25.5Q317 -10 242 -10ZM279 78Q334 78 369.5 106.5Q405 135 405 179V249H262Q222 249 198.0 226.5Q174 204 174 166Q174 125 202.0 101.5Q230 78 279 78Z"/>
<path transform="translate(343.20,0) scale(0.02200,-0.02200)" d="M300 -10Q232 -10 181.0 16.5Q130 43 102.0 91.5Q74 140 74 204V346Q74 410 102.0 458.5Q130 507 181.0 533.5Q232 560 300 560Q369 560 419.5 533.5Q470 507 498.0 458.5Q526 410 526 346V247H186V204Q186 145 215.5 114.0Q245 83 301 83Q346 83 373.5 99.0Q401 115 408 144H523Q510 74 449.0 32.0Q388 -10 300 -10ZM414 315V346Q414 405 385.5 436.5Q357 468 300 468Q245 468 215.5 436.0Q186 404 186 346V323L422 324Z"/>
<path transform="translate(356.40,0) scale(0.02200,-0.02200)" d="M280 -9Q219 -9 173.5 10.5Q128 30 101.5 64.5Q75 99 72 146H189Q192 119 216.5 103.0Q241 87 280 87H323Q371 87 395.0 106.0Q419 125 419 157Q419 187 397.5 204.5Q376 222 333 228L263 238Q172 252 129.5 288.5Q87 325 87 398Q87 475 137.5 517.0Q188 559 287 559H325Q414 559 467.0 519.0Q520 479 526 411H409Q406 434 384.0 448.5Q362 463 325 463H287Q242 463 221.5 446.5Q201 430 201 398Q201 369 219.0 354.5Q237 340 276 334L348 324Q443 310 488.0 271.5Q533 233 533 159Q533 79 480.5 35.0Q428 -9 323 -9Z"/>
<path transform="translate(369.60,0) scale(0.02200,-0.02200)" d="M360 0Q283 0 240.0 42.5Q197 85 197 160V445H46V550H197V705H313V550H527V445H313V160Q313 105 367 105H517V0Z"/>
<path transform="translate(382.80,0) scale(0.02200,-0.02200)" d="M98 0V550H209V445H238L203 380Q203 469 242.5 514.5Q282 560 359 560Q448 560 499.0 505.5Q550 451 550 354V316H429V346Q429 402 400.5 432.0Q372 462 322 462Q271 462 243.0 431.5Q215 401 215 346V0Z"/>
<path transform="translate(396.00,0) scale(0.02200,-0.02200)" d="M299 -10Q197 -10 137.5 48.0Q78 106 78 206V550H195V207Q195 152 222.5 122.0Q250 92 299 92Q349 92 377.0 122.0Q405 152 405 207V550H522V206Q522 106 461.5 48.0Q401 -10 299 -10Z"/>
<path transform="translate(409.20,0) scale(0.02200,-0.02200)" d="M304 -10Q234 -10 182.5 16.0Q131 42 102.5 90.5Q74 139 74 204V346Q74 412 102.5 460.0Q131 508 182.5 534.0Q234 560 304 560Q405 560 466.0 507.0Q527 454 530 363H414Q411 408 382.0 433.0Q353 458 304 458Q251 458 220.5 429.0Q190 400 190 346V204Q190 151 220.5 121.5Q251 92 304 92Q353 92 382.0 117.0Q411 142 414 187H530Q527 96 466.0 43.0Q405 -10 304 -10Z"/>
<path transform="translate(422.40,0) scale(0.02200,-0.02200)" d="M360 0Q283 0 240.0 42.5Q197 85 197 160V445H46V550H197V705H313V550H527V445H313V160Q313 105 367 105H517V0Z"/>
<path transform="translate(435.60,0) scale(0.02200,-0.02200)" d="M299 -10Q197 -10 137.5 48.0Q78 106 78 206V550H195V207Q195 152 222.5 122.0Q250 92 299 92Q349 92 377.0 122.0Q405 152 405 207V550H522V206Q522 106 461.5 48.0Q401 -10 299 -10Z"/>
<path transform="translate(448.80,0) scale(0.02200,-0.02200)" d="M98 0V550H209V445H238L203 380Q203 469 242.5 514.5Q282 560 359 560Q448 560 499.0 505.5Q550 451 550 354V316H429V346Q429 402 400.5 432.0Q372 462 322 462Q271 462 243.0 431.5Q215 401 215 346V0Z"/>
<path transform="translate(462.00,0) scale(0.02200,-0.02200)" d="M242 -10Q157 -10 107.5 34.5Q58 79 58 156Q58 236 111.5 280.0Q165 324 260 324H405V373Q405 415 378.0 439.0Q351 463 303 463Q260 463 231.5 444.5Q203 426 198 394H84Q93 470 153.5 515.0Q214 560 306 560Q406 560 464.0 510.0Q522 460 522 374V0H408V98H389L409 122Q409 61 363.0 25.5Q317 -10 242 -10ZM279 78Q334 78 369.5 106.5Q405 135 405 179V249H262Q222 249 198.0 226.5Q174 204 174 166Q174 125 202.0 101.5Q230 78 279 78Z"/>
      <animate attributeName="opacity" values="0.45;1;0.45" dur="2.4s" repeatCount="indefinite"/>
    </g>
    <!-- subline (JetBrains Mono paths) -->
    <g transform="translate(62,196)" fill="#8a9a97"><path transform="translate(0.00,0) scale(0.01600,-0.01600)" d="M304 -10Q235 -10 183.5 16.0Q132 42 104.0 90.5Q76 139 76 204V526Q76 592 104.0 640.0Q132 688 183.5 714.0Q235 740 304 740Q374 740 424.5 713.5Q475 687 503.0 639.5Q531 592 531 526H415Q415 580 386.0 608.5Q357 637 304 637Q251 637 221.5 608.5Q192 580 192 526V204Q192 151 221.5 122.0Q251 93 304 93Q357 93 386.0 122.0Q415 151 415 204H531Q531 140 503.0 91.5Q475 43 424.5 16.5Q374 -10 304 -10Z"/>
<path transform="translate(9.60,0) scale(0.01600,-0.01600)" d="M78 0V106H271V445H103V550H383V106H557V0ZM317 644Q280 644 259.0 662.5Q238 681 238 713Q238 746 259.0 765.0Q280 784 317 784Q354 784 375.0 765.0Q396 746 396 713Q396 681 375.0 662.5Q354 644 317 644Z"/>
<path transform="translate(19.20,0) scale(0.01600,-0.01600)" d="M343 -10Q275 -10 235.0 28.0Q195 66 195 132L220 105H195V0H80V730H197V574L194 445H220L195 418Q195 484 235.5 522.0Q276 560 343 560Q426 560 476.0 503.5Q526 447 526 351V199Q526 103 476.0 46.5Q426 -10 343 -10ZM302 91Q353 91 381.5 120.5Q410 150 410 204V346Q410 400 381.5 429.5Q353 459 302 459Q254 459 225.5 429.0Q197 399 197 346V204Q197 151 225.5 121.0Q254 91 302 91Z"/>
<path transform="translate(28.80,0) scale(0.01600,-0.01600)" d="M300 -10Q232 -10 181.0 16.5Q130 43 102.0 91.5Q74 140 74 204V346Q74 410 102.0 458.5Q130 507 181.0 533.5Q232 560 300 560Q369 560 419.5 533.5Q470 507 498.0 458.5Q526 410 526 346V247H186V204Q186 145 215.5 114.0Q245 83 301 83Q346 83 373.5 99.0Q401 115 408 144H523Q510 74 449.0 32.0Q388 -10 300 -10ZM414 315V346Q414 405 385.5 436.5Q357 468 300 468Q245 468 215.5 436.0Q186 404 186 346V323L422 324Z"/>
<path transform="translate(38.40,0) scale(0.01600,-0.01600)" d="M98 0V550H209V445H238L203 380Q203 469 242.5 514.5Q282 560 359 560Q448 560 499.0 505.5Q550 451 550 354V316H429V346Q429 402 400.5 432.0Q372 462 322 462Q271 462 243.0 431.5Q215 401 215 346V0Z"/>
<path transform="translate(48.00,0) scale(0.01600,-0.01600)" d="M280 -9Q219 -9 173.5 10.5Q128 30 101.5 64.5Q75 99 72 146H189Q192 119 216.5 103.0Q241 87 280 87H323Q371 87 395.0 106.0Q419 125 419 157Q419 187 397.5 204.5Q376 222 333 228L263 238Q172 252 129.5 288.5Q87 325 87 398Q87 475 137.5 517.0Q188 559 287 559H325Q414 559 467.0 519.0Q520 479 526 411H409Q406 434 384.0 448.5Q362 463 325 463H287Q242 463 221.5 446.5Q201 430 201 398Q201 369 219.0 354.5Q237 340 276 334L348 324Q443 310 488.0 271.5Q533 233 533 159Q533 79 480.5 35.0Q428 -9 323 -9Z"/>
<path transform="translate(57.60,0) scale(0.01600,-0.01600)" d="M300 -10Q232 -10 181.0 16.5Q130 43 102.0 91.5Q74 140 74 204V346Q74 410 102.0 458.5Q130 507 181.0 533.5Q232 560 300 560Q369 560 419.5 533.5Q470 507 498.0 458.5Q526 410 526 346V247H186V204Q186 145 215.5 114.0Q245 83 301 83Q346 83 373.5 99.0Q401 115 408 144H523Q510 74 449.0 32.0Q388 -10 300 -10ZM414 315V346Q414 405 385.5 436.5Q357 468 300 468Q245 468 215.5 436.0Q186 404 186 346V323L422 324Z"/>
<path transform="translate(67.20,0) scale(0.01600,-0.01600)" d="M154 -180V-81H320Q362 -81 383.0 -61.0Q404 -41 404 -3V46L406 148H380L405 172Q405 107 365.5 70.0Q326 33 259 33Q174 33 125.0 89.5Q76 146 76 242V351Q76 447 125.0 503.5Q174 560 259 560Q326 560 365.5 523.0Q405 486 405 421L380 445H405L403 550H519V-5Q519 -86 466.5 -133.0Q414 -180 322 -180ZM298 134Q347 134 375.0 164.0Q403 194 403 247V346Q403 399 375.0 429.0Q347 459 298 459Q247 459 219.5 429.5Q192 400 192 346V247Q192 193 219.5 163.5Q247 134 298 134Z"/>
<path transform="translate(76.80,0) scale(0.01600,-0.01600)" d="M299 -10Q197 -10 137.5 48.0Q78 106 78 206V550H195V207Q195 152 222.5 122.0Q250 92 299 92Q349 92 377.0 122.0Q405 152 405 207V550H522V206Q522 106 461.5 48.0Q401 -10 299 -10Z"/>
<path transform="translate(86.40,0) scale(0.01600,-0.01600)" d="M98 0V550H209V445H238L203 380Q203 469 242.5 514.5Q282 560 359 560Q448 560 499.0 505.5Q550 451 550 354V316H429V346Q429 402 400.5 432.0Q372 462 322 462Q271 462 243.0 431.5Q215 401 215 346V0Z"/>
<path transform="translate(96.00,0) scale(0.01600,-0.01600)" d="M78 0V106H271V445H103V550H383V106H557V0ZM317 644Q280 644 259.0 662.5Q238 681 238 713Q238 746 259.0 765.0Q280 784 317 784Q354 784 375.0 765.0Q396 746 396 713Q396 681 375.0 662.5Q354 644 317 644Z"/>
<path transform="translate(105.60,0) scale(0.01600,-0.01600)" d="M257 -10Q174 -10 124.0 46.5Q74 103 74 199V351Q74 447 124.0 503.5Q174 560 257 560Q325 560 365.0 522.0Q405 484 405 418L380 445H406L403 574V730H520V0H405V105H380L405 132Q405 66 365.0 28.0Q325 -10 257 -10ZM298 91Q347 91 375.0 121.0Q403 151 403 204V346Q403 399 375.0 429.0Q347 459 298 459Q247 459 218.5 429.5Q190 400 190 346V204Q190 150 218.5 120.5Q247 91 298 91Z"/>
<path transform="translate(115.20,0) scale(0.01600,-0.01600)" d="M242 -10Q157 -10 107.5 34.5Q58 79 58 156Q58 236 111.5 280.0Q165 324 260 324H405V373Q405 415 378.0 439.0Q351 463 303 463Q260 463 231.5 444.5Q203 426 198 394H84Q93 470 153.5 515.0Q214 560 306 560Q406 560 464.0 510.0Q522 460 522 374V0H408V98H389L409 122Q409 61 363.0 25.5Q317 -10 242 -10ZM279 78Q334 78 369.5 106.5Q405 135 405 179V249H262Q222 249 198.0 226.5Q174 204 174 166Q174 125 202.0 101.5Q230 78 279 78Z"/>
<path transform="translate(124.80,0) scale(0.01600,-0.01600)" d="M257 -10Q174 -10 124.0 46.5Q74 103 74 199V351Q74 447 124.0 503.5Q174 560 257 560Q325 560 365.0 522.0Q405 484 405 418L380 445H406L403 574V730H520V0H405V105H380L405 132Q405 66 365.0 28.0Q325 -10 257 -10ZM298 91Q347 91 375.0 121.0Q403 151 403 204V346Q403 399 375.0 429.0Q347 459 298 459Q247 459 218.5 429.5Q190 400 190 346V204Q190 150 218.5 120.5Q247 91 298 91Z"/>
<path transform="translate(144.00,0) scale(0.01600,-0.01600)" d="M300 -9Q231 -9 180.5 17.0Q130 43 102.0 91.5Q74 140 74 206V344Q74 410 102.0 458.5Q130 507 180.5 533.0Q231 559 300 559Q370 559 420.0 533.0Q470 507 498.0 458.5Q526 410 526 345V206Q526 140 498.0 91.5Q470 43 420.0 17.0Q370 -9 300 -9ZM300 93Q352 93 381.0 122.0Q410 151 410 206V344Q410 400 381.0 428.5Q352 457 300 457Q249 457 219.5 428.5Q190 400 190 344V206Q190 151 219.5 122.0Q249 93 300 93Z"/>
<path transform="translate(153.60,0) scale(0.01600,-0.01600)" d="M209 0V385H55V491H209V577Q209 647 255.0 688.5Q301 730 379 730H540V627H381Q355 627 340.0 613.5Q325 600 325 575V491H540V385H325V0Z"/>
<path transform="translate(163.20,0) scale(0.01600,-0.01600)" d="M300 -10Q232 -10 181.0 16.5Q130 43 102.0 91.5Q74 140 74 204V346Q74 410 102.0 458.5Q130 507 181.0 533.5Q232 560 300 560Q369 560 419.5 533.5Q470 507 498.0 458.5Q526 410 526 346V247H186V204Q186 145 215.5 114.0Q245 83 301 83Q346 83 373.5 99.0Q401 115 408 144H523Q510 74 449.0 32.0Q388 -10 300 -10ZM414 315V346Q414 405 385.5 436.5Q357 468 300 468Q245 468 215.5 436.0Q186 404 186 346V323L422 324Z"/>
<path transform="translate(172.80,0) scale(0.01600,-0.01600)" d="M80 0V550H195V445H225L195 418Q195 485 234.5 522.5Q274 560 342 560Q424 560 473.0 507.0Q522 454 522 363V0H405V351Q405 403 377.5 431.0Q350 459 302 459Q253 459 225.0 429.5Q197 400 197 346V0Z"/>
<path transform="translate(182.40,0) scale(0.01600,-0.01600)" d="M280 -9Q219 -9 173.5 10.5Q128 30 101.5 64.5Q75 99 72 146H189Q192 119 216.5 103.0Q241 87 280 87H323Q371 87 395.0 106.0Q419 125 419 157Q419 187 397.5 204.5Q376 222 333 228L263 238Q172 252 129.5 288.5Q87 325 87 398Q87 475 137.5 517.0Q188 559 287 559H325Q414 559 467.0 519.0Q520 479 526 411H409Q406 434 384.0 448.5Q362 463 325 463H287Q242 463 221.5 446.5Q201 430 201 398Q201 369 219.0 354.5Q237 340 276 334L348 324Q443 310 488.0 271.5Q533 233 533 159Q533 79 480.5 35.0Q428 -9 323 -9Z"/>
<path transform="translate(192.00,0) scale(0.01600,-0.01600)" d="M78 0V106H271V445H103V550H383V106H557V0ZM317 644Q280 644 259.0 662.5Q238 681 238 713Q238 746 259.0 765.0Q280 784 317 784Q354 784 375.0 765.0Q396 746 396 713Q396 681 375.0 662.5Q354 644 317 644Z"/>
<path transform="translate(201.60,0) scale(0.01600,-0.01600)" d="M225 0 43 550H162L271 207Q281 176 289.5 144.5Q298 113 302 95Q307 113 315.5 144.5Q324 176 332 207L439 550H557L376 0Z"/>
<path transform="translate(211.20,0) scale(0.01600,-0.01600)" d="M242 -10Q157 -10 107.5 34.5Q58 79 58 156Q58 236 111.5 280.0Q165 324 260 324H405V373Q405 415 378.0 439.0Q351 463 303 463Q260 463 231.5 444.5Q203 426 198 394H84Q93 470 153.5 515.0Q214 560 306 560Q406 560 464.0 510.0Q522 460 522 374V0H408V98H389L409 122Q409 61 363.0 25.5Q317 -10 242 -10ZM279 78Q334 78 369.5 106.5Q405 135 405 179V249H262Q222 249 198.0 226.5Q174 204 174 166Q174 125 202.0 101.5Q230 78 279 78Z"/>
<path transform="translate(240.00,0) scale(0.01600,-0.01600)" d="M80 0V730H322Q394 730 447.0 702.5Q500 675 529.5 625.0Q559 575 559 507Q559 441 529.5 390.5Q500 340 447.0 312.5Q394 285 322 285H197V0ZM197 390H322Q376 390 408.5 422.0Q441 454 441 507Q441 562 408.5 593.5Q376 625 322 625H197Z"/>
<path transform="translate(249.60,0) scale(0.01600,-0.01600)" d="M300 -10Q232 -10 181.0 16.5Q130 43 102.0 91.5Q74 140 74 204V346Q74 410 102.0 458.5Q130 507 181.0 533.5Q232 560 300 560Q369 560 419.5 533.5Q470 507 498.0 458.5Q526 410 526 346V247H186V204Q186 145 215.5 114.0Q245 83 301 83Q346 83 373.5 99.0Q401 115 408 144H523Q510 74 449.0 32.0Q388 -10 300 -10ZM414 315V346Q414 405 385.5 436.5Q357 468 300 468Q245 468 215.5 436.0Q186 404 186 346V323L422 324Z"/>
<path transform="translate(259.20,0) scale(0.01600,-0.01600)" d="M80 0V550H195V445H225L195 418Q195 485 234.5 522.5Q274 560 342 560Q424 560 473.0 507.0Q522 454 522 363V0H405V351Q405 403 377.5 431.0Q350 459 302 459Q253 459 225.0 429.5Q197 400 197 346V0Z"/>
<path transform="translate(268.80,0) scale(0.01600,-0.01600)" d="M360 0Q283 0 240.0 42.5Q197 85 197 160V445H46V550H197V705H313V550H527V445H313V160Q313 105 367 105H517V0Z"/>
<path transform="translate(278.40,0) scale(0.01600,-0.01600)" d="M300 -10Q232 -10 181.0 16.5Q130 43 102.0 91.5Q74 140 74 204V346Q74 410 102.0 458.5Q130 507 181.0 533.5Q232 560 300 560Q369 560 419.5 533.5Q470 507 498.0 458.5Q526 410 526 346V247H186V204Q186 145 215.5 114.0Q245 83 301 83Q346 83 373.5 99.0Q401 115 408 144H523Q510 74 449.0 32.0Q388 -10 300 -10ZM414 315V346Q414 405 385.5 436.5Q357 468 300 468Q245 468 215.5 436.0Q186 404 186 346V323L422 324Z"/>
<path transform="translate(288.00,0) scale(0.01600,-0.01600)" d="M280 -9Q219 -9 173.5 10.5Q128 30 101.5 64.5Q75 99 72 146H189Q192 119 216.5 103.0Q241 87 280 87H323Q371 87 395.0 106.0Q419 125 419 157Q419 187 397.5 204.5Q376 222 333 228L263 238Q172 252 129.5 288.5Q87 325 87 398Q87 475 137.5 517.0Q188 559 287 559H325Q414 559 467.0 519.0Q520 479 526 411H409Q406 434 384.0 448.5Q362 463 325 463H287Q242 463 221.5 446.5Q201 430 201 398Q201 369 219.0 354.5Q237 340 276 334L348 324Q443 310 488.0 271.5Q533 233 533 159Q533 79 480.5 35.0Q428 -9 323 -9Z"/>
<path transform="translate(297.60,0) scale(0.01600,-0.01600)" d="M360 0Q283 0 240.0 42.5Q197 85 197 160V445H46V550H197V705H313V550H527V445H313V160Q313 105 367 105H517V0Z"/>
<path transform="translate(307.20,0) scale(0.01600,-0.01600)" d="M78 0V106H271V445H103V550H383V106H557V0ZM317 644Q280 644 259.0 662.5Q238 681 238 713Q238 746 259.0 765.0Q280 784 317 784Q354 784 375.0 765.0Q396 746 396 713Q396 681 375.0 662.5Q354 644 317 644Z"/>
<path transform="translate(316.80,0) scale(0.01600,-0.01600)" d="M80 0V550H195V445H225L195 418Q195 485 234.5 522.5Q274 560 342 560Q424 560 473.0 507.0Q522 454 522 363V0H405V351Q405 403 377.5 431.0Q350 459 302 459Q253 459 225.0 429.5Q197 400 197 346V0Z"/>
<path transform="translate(326.40,0) scale(0.01600,-0.01600)" d="M154 -180V-81H320Q362 -81 383.0 -61.0Q404 -41 404 -3V46L406 148H380L405 172Q405 107 365.5 70.0Q326 33 259 33Q174 33 125.0 89.5Q76 146 76 242V351Q76 447 125.0 503.5Q174 560 259 560Q326 560 365.5 523.0Q405 486 405 421L380 445H405L403 550H519V-5Q519 -86 466.5 -133.0Q414 -180 322 -180ZM298 134Q347 134 375.0 164.0Q403 194 403 247V346Q403 399 375.0 429.0Q347 459 298 459Q247 459 219.5 429.5Q192 400 192 346V247Q192 193 219.5 163.5Q247 134 298 134Z"/>
<path transform="translate(355.20,0) scale(0.01600,-0.01600)" d="M81 0V730H198V432H402V730H519V0H402V324H198V0Z"/>
<path transform="translate(364.80,0) scale(0.01600,-0.01600)" d="M242 -10Q157 -10 107.5 34.5Q58 79 58 156Q58 236 111.5 280.0Q165 324 260 324H405V373Q405 415 378.0 439.0Q351 463 303 463Q260 463 231.5 444.5Q203 426 198 394H84Q93 470 153.5 515.0Q214 560 306 560Q406 560 464.0 510.0Q522 460 522 374V0H408V98H389L409 122Q409 61 363.0 25.5Q317 -10 242 -10ZM279 78Q334 78 369.5 106.5Q405 135 405 179V249H262Q222 249 198.0 226.5Q174 204 174 166Q174 125 202.0 101.5Q230 78 279 78Z"/>
<path transform="translate(374.40,0) scale(0.01600,-0.01600)" d="M98 0V550H209V445H238L203 380Q203 469 242.5 514.5Q282 560 359 560Q448 560 499.0 505.5Q550 451 550 354V316H429V346Q429 402 400.5 432.0Q372 462 322 462Q271 462 243.0 431.5Q215 401 215 346V0Z"/>
<path transform="translate(384.00,0) scale(0.01600,-0.01600)" d="M257 -10Q174 -10 124.0 46.5Q74 103 74 199V351Q74 447 124.0 503.5Q174 560 257 560Q325 560 365.0 522.0Q405 484 405 418L380 445H406L403 574V730H520V0H405V105H380L405 132Q405 66 365.0 28.0Q325 -10 257 -10ZM298 91Q347 91 375.0 121.0Q403 151 403 204V346Q403 399 375.0 429.0Q347 459 298 459Q247 459 218.5 429.5Q190 400 190 346V204Q190 150 218.5 120.5Q247 91 298 91Z"/>
<path transform="translate(393.60,0) scale(0.01600,-0.01600)" d="M300 -10Q232 -10 181.0 16.5Q130 43 102.0 91.5Q74 140 74 204V346Q74 410 102.0 458.5Q130 507 181.0 533.5Q232 560 300 560Q369 560 419.5 533.5Q470 507 498.0 458.5Q526 410 526 346V247H186V204Q186 145 215.5 114.0Q245 83 301 83Q346 83 373.5 99.0Q401 115 408 144H523Q510 74 449.0 32.0Q388 -10 300 -10ZM414 315V346Q414 405 385.5 436.5Q357 468 300 468Q245 468 215.5 436.0Q186 404 186 346V323L422 324Z"/>
<path transform="translate(403.20,0) scale(0.01600,-0.01600)" d="M80 0V550H195V445H225L195 418Q195 485 234.5 522.5Q274 560 342 560Q424 560 473.0 507.0Q522 454 522 363V0H405V351Q405 403 377.5 431.0Q350 459 302 459Q253 459 225.0 429.5Q197 400 197 346V0Z"/>
<path transform="translate(412.80,0) scale(0.01600,-0.01600)" d="M78 0V106H271V445H103V550H383V106H557V0ZM317 644Q280 644 259.0 662.5Q238 681 238 713Q238 746 259.0 765.0Q280 784 317 784Q354 784 375.0 765.0Q396 746 396 713Q396 681 375.0 662.5Q354 644 317 644Z"/>
<path transform="translate(422.40,0) scale(0.01600,-0.01600)" d="M80 0V550H195V445H225L195 418Q195 485 234.5 522.5Q274 560 342 560Q424 560 473.0 507.0Q522 454 522 363V0H405V351Q405 403 377.5 431.0Q350 459 302 459Q253 459 225.0 429.5Q197 400 197 346V0Z"/>
<path transform="translate(432.00,0) scale(0.01600,-0.01600)" d="M154 -180V-81H320Q362 -81 383.0 -61.0Q404 -41 404 -3V46L406 148H380L405 172Q405 107 365.5 70.0Q326 33 259 33Q174 33 125.0 89.5Q76 146 76 242V351Q76 447 125.0 503.5Q174 560 259 560Q326 560 365.5 523.0Q405 486 405 421L380 445H405L403 550H519V-5Q519 -86 466.5 -133.0Q414 -180 322 -180ZM298 134Q347 134 375.0 164.0Q403 194 403 247V346Q403 399 375.0 429.0Q347 459 298 459Q247 459 219.5 429.5Q192 400 192 346V247Q192 193 219.5 163.5Q247 134 298 134Z"/>
<path transform="translate(460.80,0) scale(0.01600,-0.01600)" d="M79 0V730H289Q363 730 416.5 702.0Q470 674 500.0 623.5Q530 573 530 504V227Q530 158 500.0 107.0Q470 56 416.5 28.0Q363 0 289 0ZM196 107H289Q347 107 380.0 139.0Q413 171 413 227V504Q413 559 380.0 591.0Q347 623 289 623H196Z"/>
<path transform="translate(470.40,0) scale(0.01600,-0.01600)" d="M300 -10Q232 -10 181.0 16.5Q130 43 102.0 91.5Q74 140 74 204V346Q74 410 102.0 458.5Q130 507 181.0 533.5Q232 560 300 560Q369 560 419.5 533.5Q470 507 498.0 458.5Q526 410 526 346V247H186V204Q186 145 215.5 114.0Q245 83 301 83Q346 83 373.5 99.0Q401 115 408 144H523Q510 74 449.0 32.0Q388 -10 300 -10ZM414 315V346Q414 405 385.5 436.5Q357 468 300 468Q245 468 215.5 436.0Q186 404 186 346V323L422 324Z"/>
<path transform="translate(480.00,0) scale(0.01600,-0.01600)" d="M225 0 43 550H162L271 207Q281 176 289.5 144.5Q298 113 302 95Q307 113 315.5 144.5Q324 176 332 207L439 550H557L376 0Z"/>
<path transform="translate(489.60,0) scale(0.01600,-0.01600)" d="M302 -10Q228 -10 174.0 15.0Q120 40 90.5 86.0Q61 132 61 194H177Q177 147 211.0 120.0Q245 93 304 93Q359 93 391.0 119.5Q423 146 423 193Q423 232 401.0 260.5Q379 289 338 299L250 324Q167 347 122.0 403.5Q77 460 77 538Q77 600 104.5 645.0Q132 690 182.5 715.5Q233 741 302 741Q406 741 467.0 686.5Q528 632 529 541H412Q412 586 383.0 612.0Q354 638 301 638Q250 638 221.5 613.5Q193 589 193 546Q193 506 214.5 478.0Q236 450 276 438L367 412Q450 390 494.5 334.0Q539 278 539 197Q539 135 509.5 88.5Q480 42 427.0 16.0Q374 -10 302 -10Z"/>
<path transform="translate(499.20,0) scale(0.01600,-0.01600)" d="M300 -10Q232 -10 181.0 16.5Q130 43 102.0 91.5Q74 140 74 204V346Q74 410 102.0 458.5Q130 507 181.0 533.5Q232 560 300 560Q369 560 419.5 533.5Q470 507 498.0 458.5Q526 410 526 346V247H186V204Q186 145 215.5 114.0Q245 83 301 83Q346 83 373.5 99.0Q401 115 408 144H523Q510 74 449.0 32.0Q388 -10 300 -10ZM414 315V346Q414 405 385.5 436.5Q357 468 300 468Q245 468 215.5 436.0Q186 404 186 346V323L422 324Z"/>
<path transform="translate(508.80,0) scale(0.01600,-0.01600)" d="M304 -10Q234 -10 182.5 16.0Q131 42 102.5 90.5Q74 139 74 204V346Q74 412 102.5 460.0Q131 508 182.5 534.0Q234 560 304 560Q405 560 466.0 507.0Q527 454 530 363H414Q411 408 382.0 433.0Q353 458 304 458Q251 458 220.5 429.0Q190 400 190 346V204Q190 151 220.5 121.5Q251 92 304 92Q353 92 382.0 117.0Q411 142 414 187H530Q527 96 466.0 43.0Q405 -10 304 -10Z"/>
<path transform="translate(518.40,0) scale(0.01600,-0.01600)" d="M300 -10Q231 -10 180.5 16.0Q130 42 103.0 90.5Q76 139 76 204V526Q76 592 103.0 640.0Q130 688 180.5 714.0Q231 740 300 740Q370 740 420.0 714.0Q470 688 497.0 640.0Q524 592 524 526V204Q524 139 497.0 90.5Q470 42 420.0 16.0Q370 -10 300 -10ZM300 93Q353 93 380.5 122.0Q408 151 408 204V526Q408 580 380.5 608.5Q353 637 300 637Q247 637 219.5 608.5Q192 580 192 526V204Q192 151 220.0 122.0Q248 93 300 93Z"/>
<path transform="translate(528.00,0) scale(0.01600,-0.01600)" d="M80 -180V550H195V445H220L195 418Q195 484 235.5 522.0Q276 560 344 560Q427 560 476.5 503.5Q526 447 526 351V199Q526 136 503.5 88.5Q481 41 440.5 15.5Q400 -10 344 -10Q276 -10 235.5 28.0Q195 66 195 132L220 105H194L197 -24V-180ZM303 91Q353 91 381.5 120.5Q410 150 410 204V346Q410 401 381.5 430.0Q353 459 303 459Q254 459 225.5 429.0Q197 399 197 346V204Q197 151 225.5 121.0Q254 91 303 91Z"/>
<path transform="translate(537.60,0) scale(0.01600,-0.01600)" d="M280 -9Q219 -9 173.5 10.5Q128 30 101.5 64.5Q75 99 72 146H189Q192 119 216.5 103.0Q241 87 280 87H323Q371 87 395.0 106.0Q419 125 419 157Q419 187 397.5 204.5Q376 222 333 228L263 238Q172 252 129.5 288.5Q87 325 87 398Q87 475 137.5 517.0Q188 559 287 559H325Q414 559 467.0 519.0Q520 479 526 411H409Q406 434 384.0 448.5Q362 463 325 463H287Q242 463 221.5 446.5Q201 430 201 398Q201 369 219.0 354.5Q237 340 276 334L348 324Q443 310 488.0 271.5Q533 233 533 159Q533 79 480.5 35.0Q428 -9 323 -9Z"/></g>
    <!-- chips -->
    <g font-family="monospace" font-size="13" font-weight="700">
      <g transform="translate(62,224)"><rect width="130" height="30" rx="15" fill="none" stroke="#B5C6C4" stroke-opacity="0.55"/><text x="65" y="20" text-anchor="middle" fill="#B5C6C4" font-family="monospace">VALENCIA · ES</text></g>
      <g transform="translate(202,224)"><rect width="96" height="30" rx="15" fill="none" stroke="#B5C6C4" stroke-opacity="0.55"/><text x="48" y="20" text-anchor="middle" fill="#B5C6C4" font-family="monospace">OWASP</text></g>
      <g transform="translate(308,224)"><rect width="92" height="30" rx="15" fill="none" stroke="#B5C6C4" stroke-opacity="0.55"/><text x="46" y="20" text-anchor="middle" fill="#B5C6C4" font-family="monospace">OSINT</text></g>
    </g>
    <!-- scanline -->
    <rect x="0" width="1200" height="2" fill="#B5C6C4" opacity="0.10"><animate attributeName="y" values="0;300;0" dur="6s" repeatCount="indefinite"/></rect>
    <rect x="1" y="1" width="1198" height="298" rx="18" fill="none" stroke="#B5C6C4" stroke-opacity="0.22"/>
  </g>
</svg>