<svg xmlns="http://www.w3.org/2000/svg" width="900" height="60" viewBox="0 0 900 60" fill="none">
  <defs><linearGradient id="ln" x1="0" x2="1"><stop offset="0" stop-color="#B5C6C4" stop-opacity="0"/><stop offset="0.5" stop-color="#B5C6C4"/><stop offset="1" stop-color="#B5C6C4" stop-opacity="0"/></linearGradient></defs>
  <rect width="900" height="1" y="30" fill="url(#ln)"/>
  <circle cx="0" cy="30" r="4" fill="#B5C6C4"><animate attributeName="cx" values="40;860;40" dur="5s" repeatCount="indefinite"/><animate attributeName="opacity" values="0.3;1;0.3" dur="5s" repeatCount="indefinite"/></circle>
  <g transform="translate(325.8,38)" fill="#B5C6C4"><path transform="translate(0.00,0) scale(0.01800,-0.01800)" d="M64 -110 415 830H536L185 -110Z"/>
<path transform="translate(10.80,0) scale(0.01800,-0.01800)" d="M64 -110 415 830H536L185 -110Z"/>
<path transform="translate(32.40,0) scale(0.01800,-0.01800)" d="M302 -10Q228 -10 174.0 15.0Q120 40 90.5 86.0Q61 132 61 194H177Q177 147 211.0 120.0Q245 93 304 93Q359 93 391.0 119.5Q423 146 423 193Q423 232 401.0 260.5Q379 289 338 299L250 324Q167 347 122.0 403.5Q77 460 77 538Q77 600 104.5 645.0Q132 690 182.5 715.5Q233 741 302 741Q406 741 467.0 686.5Q528 632 529 541H412Q412 586 383.0 612.0Q354 638 301 638Q250 638 221.5 613.5Q193 589 193 546Q193 506 214.5 478.0Q236 450 276 438L367 412Q450 390 494.5 334.0Q539 278 539 197Q539 135 509.5 88.5Q480 42 427.0 16.0Q374 -10 302 -10Z"/>
<path transform="translate(43.20,0) scale(0.01800,-0.01800)" d="M91 0V730H524V628H206V429H489V327H206V102H524V0Z"/>
<path transform="translate(54.00,0) scale(0.01800,-0.01800)" d="M80 0V730H310Q381 730 433.5 703.5Q486 677 515.0 628.5Q544 580 544 515Q544 442 507.0 387.5Q470 333 407 311L554 0H423L292 295H196V0ZM196 398H310Q363 398 394.5 428.5Q426 459 426 512Q426 565 394.5 596.0Q363 627 310 627H196Z"/>
<path transform="translate(64.80,0) scale(0.01800,-0.01800)" d="M224 0 39 730H159L273 249Q283 210 291.0 169.0Q299 128 303 103Q307 128 314.5 169.0Q322 210 332 250L444 730H561L376 0Z"/>
<path transform="translate(75.60,0) scale(0.01800,-0.01800)" d="M94 0V103H241V627H94V730H506V627H359V103H506V0Z"/>
<path transform="translate(86.40,0) scale(0.01800,-0.01800)" d="M304 -10Q235 -10 183.5 16.0Q132 42 104.0 90.5Q76 139 76 204V526Q76 592 104.0 640.0Q132 688 183.5 714.0Q235 740 304 740Q374 740 424.5 713.5Q475 687 503.0 639.5Q531 592 531 526H415Q415 580 386.0 608.5Q357 637 304 637Q251 637 221.5 608.5Q192 580 192 526V204Q192 151 221.5 122.0Q251 93 304 93Q357 93 386.0 122.0Q415 151 415 204H531Q531 140 503.0 91.5Q475 43 424.5 16.5Q374 -10 304 -10Z"/>
<path transform="translate(97.20,0) scale(0.01800,-0.01800)" d="M94 0V103H241V627H94V730H506V627H359V103H506V0Z"/>
<path transform="translate(108.00,0) scale(0.01800,-0.01800)" d="M300 -10Q231 -10 180.5 16.0Q130 42 103.0 90.5Q76 139 76 204V526Q76 592 103.0 640.0Q130 688 180.5 714.0Q231 740 300 740Q370 740 420.0 714.0Q470 688 497.0 640.0Q524 592 524 526V204Q524 139 497.0 90.5Q470 42 420.0 16.0Q370 -10 300 -10ZM300 93Q353 93 380.5 122.0Q408 151 408 204V526Q408 580 380.5 608.5Q353 637 300 637Q247 637 219.5 608.5Q192 580 192 526V204Q192 151 220.0 122.0Q248 93 300 93Z"/>
<path transform="translate(118.80,0) scale(0.01800,-0.01800)" d="M302 -10Q228 -10 174.0 15.0Q120 40 90.5 86.0Q61 132 61 194H177Q177 147 211.0 120.0Q245 93 304 93Q359 93 391.0 119.5Q423 146 423 193Q423 232 401.0 260.5Q379 289 338 299L250 324Q167 347 122.0 403.5Q77 460 77 538Q77 600 104.5 645.0Q132 690 182.5 715.5Q233 741 302 741Q406 741 467.0 686.5Q528 632 529 541H412Q412 586 383.0 612.0Q354 638 301 638Q250 638 221.5 613.5Q193 589 193 546Q193 506 214.5 478.0Q236 450 276 438L367 412Q450 390 494.5 334.0Q539 278 539 197Q539 135 509.5 88.5Q480 42 427.0 16.0Q374 -10 302 -10Z"/>
<path transform="translate(140.40,0) scale(0.01800,-0.01800)" d="M300 256Q258 256 233.5 280.5Q209 305 209 346Q209 388 233.5 413.0Q258 438 300 438Q342 438 366.5 413.0Q391 388 391 346Q391 305 366.5 280.5Q342 256 300 256Z"/>
<path transform="translate(162.00,0) scale(0.01800,-0.01800)" d="M302 -10Q228 -10 174.0 15.0Q120 40 90.5 86.0Q61 132 61 194H177Q177 147 211.0 120.0Q245 93 304 93Q359 93 391.0 119.5Q423 146 423 193Q423 232 401.0 260.5Q379 289 338 299L250 324Q167 347 122.0 403.5Q77 460 77 538Q77 600 104.5 645.0Q132 690 182.5 715.5Q233 741 302 741Q406 741 467.0 686.5Q528 632 529 541H412Q412 586 383.0 612.0Q354 638 301 638Q250 638 221.5 613.5Q193 589 193 546Q193 506 214.5 478.0Q236 450 276 438L367 412Q450 390 494.5 334.0Q539 278 539 197Q539 135 509.5 88.5Q480 42 427.0 16.0Q374 -10 302 -10Z"/>
<path transform="translate(172.80,0) scale(0.01800,-0.01800)" d="M91 0V730H524V628H206V429H489V327H206V102H524V0Z"/>
<path transform="translate(183.60,0) scale(0.01800,-0.01800)" d="M80 0V730H310Q381 730 433.5 703.5Q486 677 515.0 628.5Q544 580 544 515Q544 442 507.0 387.5Q470 333 407 311L554 0H423L292 295H196V0ZM196 398H310Q363 398 394.5 428.5Q426 459 426 512Q426 565 394.5 596.0Q363 627 310 627H196Z"/>
<path transform="translate(194.40,0) scale(0.01800,-0.01800)" d="M224 0 39 730H159L273 249Q283 210 291.0 169.0Q299 128 303 103Q307 128 314.5 169.0Q322 210 332 250L444 730H561L376 0Z"/>
<path transform="translate(205.20,0) scale(0.01800,-0.01800)" d="M94 0V103H241V627H94V730H506V627H359V103H506V0Z"/>
<path transform="translate(216.00,0) scale(0.01800,-0.01800)" d="M304 -10Q235 -10 183.5 16.0Q132 42 104.0 90.5Q76 139 76 204V526Q76 592 104.0 640.0Q132 688 183.5 714.0Q235 740 304 740Q374 740 424.5 713.5Q475 687 503.0 639.5Q531 592 531 526H415Q415 580 386.0 608.5Q357 637 304 637Q251 637 221.5 608.5Q192 580 192 526V204Q192 151 221.5 122.0Q251 93 304 93Q357 93 386.0 122.0Q415 151 415 204H531Q531 140 503.0 91.5Q475 43 424.5 16.5Q374 -10 304 -10Z"/>
<path transform="translate(226.80,0) scale(0.01800,-0.01800)" d="M91 0V730H524V628H206V429H489V327H206V102H524V0Z"/>
<path transform="translate(237.60,0) scale(0.01800,-0.01800)" d="M302 -10Q228 -10 174.0 15.0Q120 40 90.5 86.0Q61 132 61 194H177Q177 147 211.0 120.0Q245 93 304 93Q359 93 391.0 119.5Q423 146 423 193Q423 232 401.0 260.5Q379 289 338 299L250 324Q167 347 122.0 403.5Q77 460 77 538Q77 600 104.5 645.0Q132 690 182.5 715.5Q233 741 302 741Q406 741 467.0 686.5Q528 632 529 541H412Q412 586 383.0 612.0Q354 638 301 638Q250 638 221.5 613.5Q193 589 193 546Q193 506 214.5 478.0Q236 450 276 438L367 412Q450 390 494.5 334.0Q539 278 539 197Q539 135 509.5 88.5Q480 42 427.0 16.0Q374 -10 302 -10Z"/></g>
</svg>